STARTFONT 2.1
COMMENT
COMMENT Converted from OpenType font "hackerman.ttf" by "otf2bdf 3.0".
COMMENT
FONT -FreeType-$HACKERMAN-Medium-R-Normal--16-120-96-96-P-58-ISO10646-1
SIZE 24 96 96
FONTBOUNDINGBOX 8 16 0 -5
STARTPROPERTIES 19
FOUNDRY "FreeType"
FAMILY_NAME "$HACKERMAN"
WEIGHT_NAME "Medium"
SLANT "R"
SETWIDTH_NAME "Monospace"
ADD_STYLE_NAME ""
PIXEL_SIZE 16
POINT_SIZE 120
RESOLUTION_X 96
RESOLUTION_Y 96
SPACING "P"
AVERAGE_WIDTH 70
CHARSET_REGISTRY "ISO10646"
CHARSET_ENCODING "1"
FONT_ASCENT 11
FONT_DESCENT 5
COPYRIGHT "Copyright comradelenin456 2019"
_OTF_FONTFILE "hackerman.ttf"
_OTF_PSNAME "$HACKERMAN"
ENDPROPERTIES
CHARS 95
STARTCHAR 0020
ENCODING 32
SWIDTH 437 0
DWIDTH 7 0
BBX 0 0 0 0
BITMAP
ENDCHAR
STARTCHAR 0021
ENCODING 33
SWIDTH 437 0
DWIDTH 7 0
BBX 2 10 3 0
BITMAP
C0
C0
C0
C0
C0
C0
C0
00
C0
C0
ENDCHAR
STARTCHAR 0022
ENCODING 34
SWIDTH 437 0
DWIDTH 7 0
BBX 3 2 2 8
BITMAP
A0
A0
ENDCHAR
STARTCHAR 0023
ENCODING 35
SWIDTH 437 0
DWIDTH 7 0
BBX 6 7 0 0
BITMAP
28
7C
28
48
50
F8
50
ENDCHAR
STARTCHAR 0024
ENCODING 36
SWIDTH 437 0
DWIDTH 7 0
BBX 6 12 0 -1
BITMAP
10
78
D4
D4
D0
78
14
14
14
D4
78
10
ENDCHAR
STARTCHAR 0025
ENCODING 37
SWIDTH 437 0
DWIDTH 7 0
BBX 6 10 0 0
BITMAP
60
D0
D0
64
18
60
98
34
34
18
ENDCHAR
STARTCHAR 0026
ENCODING 38
SWIDTH 437 0
DWIDTH 7 0
BBX 6 10 0 0
BITMAP
70
C8
C8
48
30
54
C8
C8
C8
74
ENDCHAR
STARTCHAR 0027
ENCODING 39
SWIDTH 437 0
DWIDTH 7 0
BBX 1 2 3 8
BITMAP
80
80
ENDCHAR
STARTCHAR 0028
ENCODING 40
SWIDTH 375 0
DWIDTH 6 0
BBX 3 10 2 0
BITMAP
20
40
C0
C0
C0
C0
C0
C0
40
20
ENDCHAR
STARTCHAR 0029
ENCODING 41
SWIDTH 437 0
DWIDTH 7 0
BBX 3 10 3 0
BITMAP
80
40
60
60
60
60
60
60
40
80
ENDCHAR
STARTCHAR 002A
ENCODING 42
SWIDTH 437 0
DWIDTH 7 0
BBX 5 5 1 2
BITMAP
20
A8
70
A8
20
ENDCHAR
STARTCHAR 002B
ENCODING 43
SWIDTH 437 0
DWIDTH 7 0
BBX 5 5 1 1
BITMAP
20
20
F8
20
20
ENDCHAR
STARTCHAR 002C
ENCODING 44
SWIDTH 312 0
DWIDTH 5 0
BBX 2 4 2 -2
BITMAP
C0
C0
40
80
ENDCHAR
STARTCHAR 002D
ENCODING 45
SWIDTH 437 0
DWIDTH 7 0
BBX 5 1 1 3
BITMAP
F8
ENDCHAR
STARTCHAR 002E
ENCODING 46
SWIDTH 437 0
DWIDTH 7 0
BBX 2 2 2 0
BITMAP
C0
C0
ENDCHAR
STARTCHAR 002F
ENCODING 47
SWIDTH 375 0
DWIDTH 6 0
BBX 4 10 1 0
BITMAP
10
10
20
20
20
40
40
40
80
80
ENDCHAR
STARTCHAR 0030
ENCODING 48
SWIDTH 437 0
DWIDTH 7 0
BBX 6 10 0 0
BITMAP
78
C4
C4
C4
CC
D4
E4
C4
C4
78
ENDCHAR
STARTCHAR 0031
ENCODING 49
SWIDTH 437 0
DWIDTH 7 0
BBX 6 10 0 0
BITMAP
30
70
B0
30
30
30
30
30
30
FC
ENDCHAR
STARTCHAR 0032
ENCODING 50
SWIDTH 437 0
DWIDTH 7 0
BBX 6 10 0 0
BITMAP
78
C4
C4
C4
CC
18
60
C0
C0
FC
ENDCHAR
STARTCHAR 0033
ENCODING 51
SWIDTH 437 0
DWIDTH 7 0
BBX 6 10 0 0
BITMAP
78
C4
C4
04
38
10
08
C4
C4
78
ENDCHAR
STARTCHAR 0034
ENCODING 52
SWIDTH 437 0
DWIDTH 7 0
BBX 7 10 0 0
BITMAP
0C
1C
34
34
64
FE
04
04
04
04
ENDCHAR
STARTCHAR 0035
ENCODING 53
SWIDTH 437 0
DWIDTH 7 0
BBX 6 10 0 0
BITMAP
FC
C0
C0
C0
F8
C4
04
04
C4
78
ENDCHAR
STARTCHAR 0036
ENCODING 54
SWIDTH 437 0
DWIDTH 7 0
BBX 6 10 0 0
BITMAP
78
C4
C4
C0
F8
C4
C4
C4
C4
78
ENDCHAR
STARTCHAR 0037
ENCODING 55
SWIDTH 437 0
DWIDTH 7 0
BBX 6 10 0 0
BITMAP
FC
C4
08
08
10
10
10
20
20
20
ENDCHAR
STARTCHAR 0038
ENCODING 56
SWIDTH 437 0
DWIDTH 7 0
BBX 6 10 0 0
BITMAP
78
C4
C4
48
30
48
C4
C4
C4
78
ENDCHAR
STARTCHAR 0039
ENCODING 57
SWIDTH 437 0
DWIDTH 7 0
BBX 6 10 0 0
BITMAP
78
C4
C4
C4
C4
7C
04
04
C4
78
ENDCHAR
STARTCHAR 003A
ENCODING 58
SWIDTH 312 0
DWIDTH 5 0
BBX 2 10 2 0
BITMAP
C0
C0
00
00
00
00
00
00
C0
C0
ENDCHAR
STARTCHAR 003B
ENCODING 59
SWIDTH 312 0
DWIDTH 5 0
BBX 2 12 2 -2
BITMAP
C0
C0
00
00
00
00
00
00
C0
C0
40
80
ENDCHAR
STARTCHAR 003C
ENCODING 60
SWIDTH 437 0
DWIDTH 7 0
BBX 6 7 0 1
BITMAP
04
18
60
80
60
18
04
ENDCHAR
STARTCHAR 003D
ENCODING 61
SWIDTH 437 0
DWIDTH 7 0
BBX 5 3 1 3
BITMAP
F8
00
F8
ENDCHAR
STARTCHAR 003E
ENCODING 62
SWIDTH 437 0
DWIDTH 7 0
BBX 6 7 0 1
BITMAP
80
60
18
04
18
60
80
ENDCHAR
STARTCHAR 003F
ENCODING 63
SWIDTH 437 0
DWIDTH 7 0
BBX 6 10 0 0
BITMAP
38
64
C4
04
04
38
30
00
30
30
ENDCHAR
STARTCHAR 0040
ENCODING 64
SWIDTH 437 0
DWIDTH 7 0
BBX 6 7 0 0
BITMAP
78
C4
DC
D4
CC
C0
7C
ENDCHAR
STARTCHAR 0041
ENCODING 65
SWIDTH 437 0
DWIDTH 7 0
BBX 6 10 0 0
BITMAP
78
C4
C4
C4
FC
C4
C4
C4
C4
C4
ENDCHAR
STARTCHAR 0042
ENCODING 66
SWIDTH 437 0
DWIDTH 7 0
BBX 6 10 0 0
BITMAP
F8
C4
C4
C4
F8
C4
C4
C4
C4
F8
ENDCHAR
STARTCHAR 0043
ENCODING 67
SWIDTH 437 0
DWIDTH 7 0
BBX 6 10 0 0
BITMAP
78
C4
C0
C0
C0
C0
C0
C0
C4
78
ENDCHAR
STARTCHAR 0044
ENCODING 68
SWIDTH 437 0
DWIDTH 7 0
BBX 6 10 0 0
BITMAP
F8
C4
C4
C4
C4
C4
C4
C4
C4
F8
ENDCHAR
STARTCHAR 0045
ENCODING 69
SWIDTH 437 0
DWIDTH 7 0
BBX 6 10 0 0
BITMAP
FC
C0
C0
C0
FC
C0
C0
C0
C0
FC
ENDCHAR
STARTCHAR 0046
ENCODING 70
SWIDTH 437 0
DWIDTH 7 0
BBX 6 10 0 0
BITMAP
FC
C0
C0
C0
FC
C0
C0
C0
C0
C0
ENDCHAR
STARTCHAR 0047
ENCODING 71
SWIDTH 437 0
DWIDTH 7 0
BBX 6 10 0 0
BITMAP
78
C4
C0
C0
DC
C4
C4
C4
C4
78
ENDCHAR
STARTCHAR 0048
ENCODING 72
SWIDTH 437 0
DWIDTH 7 0
BBX 6 10 0 0
BITMAP
C4
C4
C4
C4
FC
C4
C4
C4
C4
C4
ENDCHAR
STARTCHAR 0049
ENCODING 73
SWIDTH 437 0
DWIDTH 7 0
BBX 6 10 0 0
BITMAP
FC
30
30
30
30
30
30
30
30
FC
ENDCHAR
STARTCHAR 004A
ENCODING 74
SWIDTH 437 0
DWIDTH 7 0
BBX 6 13 0 -3
BITMAP
FC
30
30
30
30
30
30
30
30
30
30
20
C0
ENDCHAR
STARTCHAR 004B
ENCODING 75
SWIDTH 437 0
DWIDTH 7 0
BBX 6 10 0 0
BITMAP
C4
C4
C8
C8
F0
C8
C8
C4
C4
C4
ENDCHAR
STARTCHAR 004C
ENCODING 76
SWIDTH 437 0
DWIDTH 7 0
BBX 6 10 0 0
BITMAP
C0
C0
C0
C0
C0
C0
C0
C0
C0
FC
ENDCHAR
STARTCHAR 004D
ENCODING 77
SWIDTH 437 0
DWIDTH 7 0
BBX 6 10 0 0
BITMAP
C4
EC
D4
D4
D4
D4
C4
C4
C4
C4
ENDCHAR
STARTCHAR 004E
ENCODING 78
SWIDTH 437 0
DWIDTH 7 0
BBX 6 10 0 0
BITMAP
C4
C4
E4
E4
D4
D4
CC
CC
C4
C4
ENDCHAR
STARTCHAR 004F
ENCODING 79
SWIDTH 437 0
DWIDTH 7 0
BBX 6 10 0 0
BITMAP
78
C4
C4
C4
C4
C4
C4
C4
C4
78
ENDCHAR
STARTCHAR 0050
ENCODING 80
SWIDTH 437 0
DWIDTH 7 0
BBX 6 10 0 0
BITMAP
F8
C4
C4
C4
F8
C0
C0
C0
C0
C0
ENDCHAR
STARTCHAR 0051
ENCODING 81
SWIDTH 437 0
DWIDTH 7 0
BBX 6 13 0 -3
BITMAP
78
C4
C4
C4
C4
C4
E4
D4
D4
78
10
14
08
ENDCHAR
STARTCHAR 0052
ENCODING 82
SWIDTH 437 0
DWIDTH 7 0
BBX 6 10 0 0
BITMAP
F8
C4
C4
C4
F8
C4
C4
C4
C4
C4
ENDCHAR
STARTCHAR 0053
ENCODING 83
SWIDTH 437 0
DWIDTH 7 0
BBX 6 10 0 0
BITMAP
78
C4
C4
C0
78
04
04
04
C4
78
ENDCHAR
STARTCHAR 0054
ENCODING 84
SWIDTH 437 0
DWIDTH 7 0
BBX 6 10 0 0
BITMAP
FC
30
30
30
30
30
30
30
30
30
ENDCHAR
STARTCHAR 0055
ENCODING 85
SWIDTH 437 0
DWIDTH 7 0
BBX 6 10 0 0
BITMAP
C4
C4
C4
C4
C4
C4
C4
C4
C4
78
ENDCHAR
STARTCHAR 0056
ENCODING 86
SWIDTH 437 0
DWIDTH 7 0
BBX 6 10 0 0
BITMAP
C4
C4
C4
C4
C4
C4
C8
D0
60
20
ENDCHAR
STARTCHAR 0057
ENCODING 87
SWIDTH 437 0
DWIDTH 7 0
BBX 6 10 0 0
BITMAP
D4
D4
D4
D4
D4
D4
D4
D4
D4
68
ENDCHAR
STARTCHAR 0058
ENCODING 88
SWIDTH 437 0
DWIDTH 7 0
BBX 6 10 0 0
BITMAP
C4
C4
C4
48
30
48
C4
C4
C4
C4
ENDCHAR
STARTCHAR 0059
ENCODING 89
SWIDTH 437 0
DWIDTH 7 0
BBX 6 10 0 0
BITMAP
C4
C4
C4
68
30
30
30
30
30
30
ENDCHAR
STARTCHAR 005A
ENCODING 90
SWIDTH 437 0
DWIDTH 7 0
BBX 6 10 0 0
BITMAP
FC
0C
18
18
30
30
60
60
C0
FC
ENDCHAR
STARTCHAR 005B
ENCODING 91
SWIDTH 437 0
DWIDTH 7 0
BBX 4 10 0 0
BITMAP
F0
C0
C0
C0
C0
C0
C0
C0
C0
F0
ENDCHAR
STARTCHAR 005C
ENCODING 92
SWIDTH 437 0
DWIDTH 7 0
BBX 5 10 1 0
BITMAP
80
80
40
40
20
20
10
10
08
08
ENDCHAR
STARTCHAR 005D
ENCODING 93
SWIDTH 437 0
DWIDTH 7 0
BBX 4 10 2 0
BITMAP
F0
30
30
30
30
30
30
30
30
F0
ENDCHAR
STARTCHAR 005E
ENCODING 94
SWIDTH 437 0
DWIDTH 7 0
BBX 5 3 1 7
BITMAP
20
50
88
ENDCHAR
STARTCHAR 005F
ENCODING 95
SWIDTH 437 0
DWIDTH 7 0
BBX 6 1 0 0
BITMAP
FC
ENDCHAR
STARTCHAR 0060
ENCODING 96
SWIDTH 437 0
DWIDTH 7 0
BBX 3 3 3 7
BITMAP
80
40
20
ENDCHAR
STARTCHAR 0061
ENCODING 97
SWIDTH 437 0
DWIDTH 7 0
BBX 6 7 0 0
BITMAP
78
C4
04
7C
C4
C4
7C
ENDCHAR
STARTCHAR 0062
ENCODING 98
SWIDTH 437 0
DWIDTH 7 0
BBX 6 11 0 0
BITMAP
C0
C0
C0
C0
F8
C4
C4
C4
C4
C4
F8
ENDCHAR
STARTCHAR 0063
ENCODING 99
SWIDTH 437 0
DWIDTH 7 0
BBX 6 7 0 0
BITMAP
3C
C0
C0
C0
C0
C0
3C
ENDCHAR
STARTCHAR 0064
ENCODING 100
SWIDTH 437 0
DWIDTH 7 0
BBX 8 11 0 0
BITMAP
04
04
04
04
7C
C4
C4
C4
C4
C6
7F
ENDCHAR
STARTCHAR 0065
ENCODING 101
SWIDTH 437 0
DWIDTH 7 0
BBX 6 7 0 0
BITMAP
78
C4
C4
FC
C0
C4
78
ENDCHAR
STARTCHAR 0066
ENCODING 102
SWIDTH 437 0
DWIDTH 7 0
BBX 6 10 0 0
BITMAP
78
C4
C4
C0
C0
FC
C0
C0
C0
C0
ENDCHAR
STARTCHAR 0067
ENCODING 103
SWIDTH 437 0
DWIDTH 7 0
BBX 6 12 0 -5
BITMAP
7C
C4
C4
C4
C4
C4
7C
04
78
C4
C4
78
ENDCHAR
STARTCHAR 0068
ENCODING 104
SWIDTH 437 0
DWIDTH 7 0
BBX 6 11 0 0
BITMAP
C0
C0
C0
C0
F8
C4
C4
C4
C4
C4
C4
ENDCHAR
STARTCHAR 0069
ENCODING 105
SWIDTH 437 0
DWIDTH 7 0
BBX 6 10 0 0
BITMAP
30
30
00
F0
30
30
30
30
10
0C
ENDCHAR
STARTCHAR 006A
ENCODING 106
SWIDTH 437 0
DWIDTH 7 0
BBX 4 14 1 -4
BITMAP
30
30
00
F0
30
30
30
30
30
30
30
30
20
C0
ENDCHAR
STARTCHAR 006B
ENCODING 107
SWIDTH 437 0
DWIDTH 7 0
BBX 6 11 0 0
BITMAP
C0
C0
C0
C0
CC
C8
D0
E0
D0
C8
CC
ENDCHAR
STARTCHAR 006C
ENCODING 108
SWIDTH 437 0
DWIDTH 7 0
BBX 6 11 0 0
BITMAP
F0
30
30
30
30
30
30
30
30
10
0C
ENDCHAR
STARTCHAR 006D
ENCODING 109
SWIDTH 437 0
DWIDTH 7 0
BBX 6 7 0 0
BITMAP
E8
D4
D4
D4
D4
D4
D4
ENDCHAR
STARTCHAR 006E
ENCODING 110
SWIDTH 437 0
DWIDTH 7 0
BBX 6 7 0 0
BITMAP
F8
C4
C4
C4
C4
C4
C4
ENDCHAR
STARTCHAR 006F
ENCODING 111
SWIDTH 437 0
DWIDTH 7 0
BBX 6 7 0 0
BITMAP
78
C4
C4
C4
C4
C4
78
ENDCHAR
STARTCHAR 0070
ENCODING 112
SWIDTH 437 0
DWIDTH 7 0
BBX 6 11 0 -4
BITMAP
F8
C4
C4
C4
C4
C4
F8
C0
C0
C0
C0
ENDCHAR
STARTCHAR 0071
ENCODING 113
SWIDTH 437 0
DWIDTH 7 0
BBX 8 11 0 -4
BITMAP
7C
C4
C4
C4
C4
C4
7C
04
04
06
07
ENDCHAR
STARTCHAR 0072
ENCODING 114
SWIDTH 437 0
DWIDTH 7 0
BBX 6 7 0 0
BITMAP
F8
C4
C4
C0
C0
C0
C0
ENDCHAR
STARTCHAR 0073
ENCODING 115
SWIDTH 437 0
DWIDTH 7 0
BBX 6 7 0 0
BITMAP
78
C4
C0
78
04
C4
78
ENDCHAR
STARTCHAR 0074
ENCODING 116
SWIDTH 437 0
DWIDTH 7 0
BBX 6 10 0 0
BITMAP
C0
C0
C0
C0
FC
C0
C0
C4
C4
78
ENDCHAR
STARTCHAR 0075
ENCODING 117
SWIDTH 437 0
DWIDTH 7 0
BBX 6 7 0 0
BITMAP
C4
C4
C4
C4
C4
C4
7C
ENDCHAR
STARTCHAR 0076
ENCODING 118
SWIDTH 437 0
DWIDTH 7 0
BBX 6 7 0 0
BITMAP
C4
C4
C4
C4
C8
50
20
ENDCHAR
STARTCHAR 0077
ENCODING 119
SWIDTH 437 0
DWIDTH 7 0
BBX 6 7 0 0
BITMAP
D4
D4
D4
D4
D4
54
28
ENDCHAR
STARTCHAR 0078
ENCODING 120
SWIDTH 437 0
DWIDTH 7 0
BBX 6 7 0 0
BITMAP
C4
C4
48
30
48
C4
C4
ENDCHAR
STARTCHAR 0079
ENCODING 121
SWIDTH 437 0
DWIDTH 7 0
BBX 6 10 0 -3
BITMAP
C4
C4
C4
C4
C4
C4
7C
04
C4
78
ENDCHAR
STARTCHAR 007A
ENCODING 122
SWIDTH 437 0
DWIDTH 7 0
BBX 6 7 0 0
BITMAP
FC
18
18
30
60
60
FC
ENDCHAR
STARTCHAR 007B
ENCODING 123
SWIDTH 437 0
DWIDTH 7 0
BBX 5 11 0 0
BITMAP
38
60
60
60
40
80
40
60
60
60
38
ENDCHAR
STARTCHAR 007C
ENCODING 124
SWIDTH 437 0
DWIDTH 7 0
BBX 1 12 3 -1
BITMAP
80
80
80
80
80
80
80
80
80
80
80
80
ENDCHAR
STARTCHAR 007D
ENCODING 125
SWIDTH 437 0
DWIDTH 7 0
BBX 5 11 1 0
BITMAP
E0
30
30
30
10
08
10
30
30
30
E0
ENDCHAR
STARTCHAR 007E
ENCODING 126
SWIDTH 437 0
DWIDTH 7 0
BBX 6 3 0 2
BITMAP
60
D4
08
ENDCHAR
ENDFONT
